<svg id="visual" viewBox="0 0 900 600" width="900" height="600" xmlns="http://www.w3.org/2000/svg" xmlns:xlink="http://www.w3.org/1999/xlink" version="1.1"><rect x="0" y="0" width="900" height="600" fill="#ffffff"></rect><defs><linearGradient id="grad1_0" x1="33.3%" y1="0%" x2="100%" y2="100%"><stop offset="20%" stop-color="#ffffff" stop-opacity="1">
</stop>
<stop offset="80%" stop-color="#ffffff" stop-opacity="1"></stop>
</linearGradient>
</defs><defs>
<linearGradient id="grad2_0" x1="0%" y1="0%" x2="66.7%" y2="100%"><stop offset="20%" stop-color="#ffffff" stop-opacity="1"></stop><stop offset="80%" stop-color="#ffffff" stop-opacity="1"></stop></linearGradient></defs><g transform="translate(900, 0)"><path d="M0 324.5C-40.9 289.2 -81.9 253.9 -133.5 231.2C-185.1 208.6 -247.4 198.7 -281 162.2C-314.6 125.8 -319.6 62.9 -324.5 0L0 0Z" fill="#FBAE3C"></path></g><g transform="translate(0, 600)"><path d="M0 -324.5C49.2 -303.5 98.4 -282.5 149 -258.1C199.6 -233.7 251.5 -205.8 281 -162.2C310.5 -118.7 317.5 -59.3 324.5 0L0 0Z" fill="#FBAE3C"></path></g></svg>