<!--?xml version="1.0" standalone="no"?-->
              <svg id="sw-js-blob-svg" viewBox="0 0 100 100" xmlns="http://www.w3.org/2000/svg" version="1.1">
                    <defs> 
                        <linearGradient id="sw-gradient" x1="0" x2="1" y1="1" y2="0">
                            <stop id="stop1" stop-color="rgba(248, 117, 55, 1)" offset="0%"></stop>
                            <stop id="stop2" stop-color="rgba(251, 168, 31, 1)" offset="100%"></stop>
                        </linearGradient>
                    </defs>
                <path fill="url(#sw-gradient)" d="M22,-23.1C29.9,-19.7,38.5,-14,39.7,-7C40.8,-0.1,34.6,8.1,29.2,16.4C23.9,24.6,19.4,32.9,12.9,35.1C6.4,37.2,-2.1,33.3,-9.4,29.2C-16.7,25,-22.6,20.8,-27.7,14.7C-32.7,8.6,-36.7,0.7,-34.6,-5.2C-32.5,-11.2,-24.3,-15.2,-17.6,-18.9C-10.8,-22.5,-5.4,-25.7,0.8,-26.7C7.1,-27.7,14.2,-26.5,22,-23.1Z" width="100%" height="100%" transform="translate(50 50)" stroke-width="0" style="transition: all 0.3s ease 0s;"></path>
              </svg>